<svg xmlns="http://www.w3.org/2000/svg" width="89.743" height="99.524" viewBox="0 0 89.743 99.524"><defs><style>.a{fill:#ff2424;}</style></defs><g transform="translate(-11.376)"><path class="a" d="M105.42,122a3.225,3.225,0,0,0,3.2,2.893,3.271,3.271,0,0,0,.335-.017,3.224,3.224,0,0,0,2.875-3.538l-1.487-14.387a3.224,3.224,0,0,0-6.414.663Z" transform="translate(-52.76 -59.328)"/><path class="a" d="M150.514,124.877a3.269,3.269,0,0,0,.335.017,3.225,3.225,0,0,0,3.2-2.893l1.486-14.387a3.224,3.224,0,0,0-6.414-.663l-1.486,14.387A3.224,3.224,0,0,0,150.514,124.877Z" transform="translate(-77.678 -59.328)"/><path class="a" d="M83.042,185.088a9.981,9.981,0,1,0,9.98,9.979A9.991,9.991,0,0,0,83.042,185.088Zm0,13.513a3.533,3.533,0,1,1,3.532-3.534A3.537,3.537,0,0,1,83.042,198.6Z" transform="translate(-35.17 -105.525)"/><path class="a" d="M160.483,185.088a9.981,9.981,0,1,0,9.981,9.979A9.991,9.991,0,0,0,160.483,185.088Zm0,13.513a3.533,3.533,0,1,1,3.533-3.534A3.537,3.537,0,0,1,160.483,198.6Z" transform="translate(-79.321 -105.525)"/><path class="a" d="M100.446,60.456A3.224,3.224,0,0,0,97.9,59.2H33.633l-2.7-10.377a3.224,3.224,0,0,0-3.12-2.412H14.6a3.224,3.224,0,1,0,0,6.448H25.321L28,63.156c.013.058.028.115.045.171L38,101.6a3.224,3.224,0,0,0,3.12,2.412h46.8a3.224,3.224,0,0,0,3.12-2.412l9.977-38.365A3.225,3.225,0,0,0,100.446,60.456ZM85.425,97.57H43.61l-8.3-31.917H93.726Z" transform="translate(0 -26.462)"/><path class="a" d="M90.855,32.109a3.224,3.224,0,0,0,4.558-4.561L85.274,17.413a3.224,3.224,0,0,0-4.559,4.56Z" transform="translate(-38.994 -9.39)"/><path class="a" d="M154.9,33.054a3.215,3.215,0,0,0,2.281-.945L167.3,21.975a3.224,3.224,0,1,0-4.561-4.557L152.618,27.551a3.224,3.224,0,0,0,2.28,5.5Z" transform="translate(-79.989 -9.392)"/><path class="a" d="M130.731,20.767h0a3.224,3.224,0,0,0,3.224-3.223l0-14.319A3.224,3.224,0,0,0,130.736,0h0a3.224,3.224,0,0,0-3.224,3.223l0,14.319A3.224,3.224,0,0,0,130.731,20.767Z" transform="translate(-66.211)"/></g></svg>