<?xml version="1.0" standalone="no"?>
<!DOCTYPE svg PUBLIC "-//W3C//DTD SVG 20010904//EN"
 "http://www.w3.org/TR/2001/REC-SVG-20010904/DTD/svg10.dtd">
<svg version="1.0" xmlns="http://www.w3.org/2000/svg"
 width="51.000000pt" height="51.000000pt" viewBox="0 0 51.000000 51.000000"
 preserveAspectRatio="xMidYMid meet">

<g transform="translate(0.000000,51.000000) scale(0.100000,-0.100000)"
fill="#000000" stroke="none">
<path d="M364 500 c-32 -13 -54 -50 -54 -91 0 -29 7 -43 31 -63 17 -14 39 -26
49 -26 51 0 100 49 100 99 0 27 -49 79 -80 85 -14 3 -35 1 -46 -4z m86 -30
c12 -12 20 -33 20 -55 0 -45 -29 -75 -73 -75 -45 0 -77 31 -77 75 0 46 29 75
75 75 22 0 43 -8 55 -20z"/>
<path d="M180 470 c-11 -11 -20 -29 -20 -40 0 -25 34 -60 58 -60 31 0 62 29
62 59 0 55 -61 80 -100 41z m74 -6 c23 -23 20 -51 -8 -69 -33 -22 -66 -5 -66
33 0 49 42 69 74 36z"/>
<path d="M50 446 c-28 -35 11 -93 48 -70 35 22 22 84 -18 84 -10 0 -23 -7 -30
-14z m54 -19 c8 -12 7 -21 -5 -32 -21 -21 -49 -9 -49 20 0 36 34 44 54 12z"/>
<path d="M30 325 c-19 -20 -25 -40 -28 -90 l-4 -65 66 0 66 0 0 -35 0 -35 80
0 80 0 0 -45 0 -45 105 0 105 0 0 106 c0 103 -1 106 -29 135 -34 33 -83 39
-131 14 -29 -15 -30 -15 -30 6 0 28 -53 79 -82 79 -13 0 -37 -8 -54 -19 -29
-18 -31 -18 -53 0 -32 26 -63 24 -91 -6z m92 -12 c18 -16 21 -16 47 0 57 33
131 9 131 -42 0 -28 17 -35 42 -17 36 26 85 20 119 -13 28 -28 29 -33 29 -125
l0 -96 -95 0 -95 0 0 45 0 44 -77 3 c-78 3 -78 3 -83 33 -5 29 -7 30 -63 33
l-57 3 0 64 c0 50 4 66 18 74 26 16 63 13 84 -6z"/>
</g>
</svg>
