<svg xmlns="http://www.w3.org/2000/svg" width="22.026" height="21.74" viewBox="0 0 22.026 21.74"><defs><style>.a{fill:#fff;}</style></defs><g transform="translate(0 -1.597)"><path class="a" d="M21.043,74.691l-2.51-2.507a2.969,2.969,0,0,0-4.173-.224l-.854.853a1.074,1.074,0,0,1-1.461-.185L9.694,70.279a1.056,1.056,0,0,1-.185-1.457l.854-.854a2.959,2.959,0,0,0-.224-4.171l-2.51-2.507a2.969,2.969,0,0,0-4.173-.224L1.583,62.938a5.215,5.215,0,0,0-.7,6.645C2.051,71.4,9.041,78.4,12.595,80.9c2.209,1.554,5.054,1.578,6.8-.165l1.873-1.871A2.959,2.959,0,0,0,21.043,74.691Z" transform="translate(0 -58.715)"/></g></svg>