<svg xmlns="http://www.w3.org/2000/svg" width="21.773" height="25.122" viewBox="0 0 21.773 25.122"><defs><style>.a{fill:#ff5a31;}</style></defs><path class="a" d="M69.354,16h-20.1a.419.419,0,0,0-.419.419v1.256h-.419a.419.419,0,0,0,0,.837h.419v1.675h-.419a.419.419,0,0,0,0,.837h.419V22.7h-.419a.419.419,0,0,0,0,.837h.419v1.675h-.419a.419.419,0,0,0,0,.837h.419v1.675h-.419a.419.419,0,0,0,0,.837h.419v1.675h-.419a.419.419,0,0,0,0,.837h.419v1.675h-.419a.419.419,0,0,0,0,.837h.419V35.26h-.419a.419.419,0,0,0,0,.837h.419v1.675h-.419a.419.419,0,0,0,0,.837h.419V40.7a.419.419,0,0,0,.419.419h20.1a.419.419,0,0,0,.419-.419V16.419A.419.419,0,0,0,69.354,16Zm-18,24.285H49.675V38.61h.419a.419.419,0,0,0,0-.837h-.419V36.1h.419a.419.419,0,0,0,0-.837h-.419V33.586h.419a.419.419,0,0,0,0-.837h-.419V31.073h.419a.419.419,0,0,0,0-.837h-.419V28.561h.419a.419.419,0,0,0,0-.837h-.419V26.049h.419a.419.419,0,0,0,0-.837h-.419V23.537h.419a.419.419,0,0,0,0-.837h-.419V21.024h.419a.419.419,0,0,0,0-.837h-.419V18.512h.419a.419.419,0,0,0,0-.837h-.419v-.837H51.35Zm17.586,0H52.187V16.837H68.935Z" transform="translate(-48 -16)"/><path class="a" d="M144.419,288.837h2.931a.419.419,0,1,0,0-.837h-2.931a.419.419,0,0,0,0,.837Z" transform="translate(-138.976 -273.764)"/><path class="a" d="M233.256,288h-.837a.419.419,0,0,0,0,.837h.837a.419.419,0,1,0,0-.837Z" transform="translate(-222.37 -273.764)"/><path class="a" d="M144.419,336.837h2.931a.419.419,0,1,0,0-.837h-2.931a.419.419,0,0,0,0,.837Z" transform="translate(-138.976 -319.252)"/><path class="a" d="M233.256,336h-.837a.419.419,0,0,0,0,.837h.837a.419.419,0,1,0,0-.837Z" transform="translate(-222.37 -319.252)"/><path class="a" d="M144.419,384.837h2.931a.419.419,0,1,0,0-.837h-2.931a.419.419,0,0,0,0,.837Z" transform="translate(-138.976 -364.74)"/><path class="a" d="M233.256,384h-.837a.419.419,0,0,0,0,.837h.837a.419.419,0,1,0,0-.837Z" transform="translate(-222.37 -364.74)"/><path class="a" d="M147.35,432h-2.931a.419.419,0,0,0,0,.837h2.931a.419.419,0,1,0,0-.837Z" transform="translate(-138.976 -410.227)"/><path class="a" d="M233.256,432h-.837a.419.419,0,0,0,0,.837h.837a.419.419,0,1,0,0-.837Z" transform="translate(-222.37 -410.227)"/><path class="a" d="M312,288.419a.419.419,0,0,0,.419.419h2.931a.419.419,0,1,0,0-.837h-2.931A.419.419,0,0,0,312,288.419Z" transform="translate(-298.183 -273.764)"/><path class="a" d="M400.419,288.837h.837a.419.419,0,0,0,0-.837h-.837a.419.419,0,1,0,0,.837Z" transform="translate(-381.577 -273.764)"/><path class="a" d="M315.35,336h-2.931a.419.419,0,1,0,0,.837h2.931a.419.419,0,1,0,0-.837Z" transform="translate(-298.183 -319.252)"/><path class="a" d="M400.419,336.837h.837a.419.419,0,0,0,0-.837h-.837a.419.419,0,1,0,0,.837Z" transform="translate(-381.577 -319.252)"/><path class="a" d="M315.35,384h-2.931a.419.419,0,1,0,0,.837h2.931a.419.419,0,1,0,0-.837Z" transform="translate(-298.183 -364.74)"/><path class="a" d="M400.419,384.837h.837a.419.419,0,0,0,0-.837h-.837a.419.419,0,1,0,0,.837Z" transform="translate(-381.577 -364.74)"/><path class="a" d="M315.35,432h-2.931a.419.419,0,1,0,0,.837h2.931a.419.419,0,1,0,0-.837Z" transform="translate(-298.183 -410.227)"/><path class="a" d="M400.419,432.837h.837a.419.419,0,0,0,0-.837h-.837a.419.419,0,1,0,0,.837Z" transform="translate(-381.577 -410.227)"/><path class="a" d="M280,272.419v9.211a.419.419,0,1,0,.837,0v-9.211a.419.419,0,0,0-.837,0Z" transform="translate(-267.858 -258.601)"/><path class="a" d="M208,58.131a.429.429,0,0,0,.007.049h0a.421.421,0,0,0,.013.047l0,.01a.365.365,0,0,0,.016.037l0,.006.786,1.572-.346,4.85a1.256,1.256,0,0,0,1.253,1.346h.713A1.256,1.256,0,0,0,211.7,64.7l-.346-4.85.786-1.572,0-.006q.009-.018.016-.037l0-.01a.413.413,0,0,0,.013-.047h0a.414.414,0,0,0,.007-.049s0-.009,0-.014,0-.016,0-.023V56.419a.419.419,0,1,0-.837,0v1.256h-.837V56.419a.419.419,0,1,0-.837,0v1.256h-.837V56.419a.419.419,0,1,0-.837,0v1.675c0,.008,0,.016,0,.023S208,58.126,208,58.131Zm2.755,6.947a.415.415,0,0,1-.306.133h-.713a.419.419,0,0,1-.418-.449l.327-4.576h.895l.327,4.576A.415.415,0,0,1,210.757,65.078Zm.334-6.566-.419.837h-1.157l-.419-.837Z" transform="translate(-199.626 -53.906)"/><path class="a" d="M296.231,60.98l.606.3v.139l-.324,3.245a1.256,1.256,0,0,0,1.25,1.381h.662a1.256,1.256,0,0,0,1.25-1.381l-.324-3.246v-5A.419.419,0,0,0,298.93,56c-2.557,0-2.916,4.388-2.93,4.574a.419.419,0,0,0,.23.406Zm2.5,4.094a.414.414,0,0,1-.31.138h-.662a.419.419,0,0,1-.417-.461l.289-2.889h.917l.289,2.889A.414.414,0,0,1,298.734,65.074Zm-1.483-6.441a2.568,2.568,0,0,1,1.261-1.719v4.111h-.837a.419.419,0,0,0-.232-.374l-.577-.289A9.191,9.191,0,0,1,297.251,58.633Z" transform="translate(-283.02 -53.906)"/></svg>