<svg xmlns="http://www.w3.org/2000/svg" width="31.5" height="28" viewBox="0 0 31.5 28"><path class="a" d="M23.571,26.214V24.771a7.816,7.816,0,0,0,3.5-6.5c0-4.349,0-7.875-5.25-7.875s-5.25,3.526-5.25,7.875a7.816,7.816,0,0,0,3.5,6.5v1.443c-5.936.485-10.5,3.4-10.5,6.929h24.5c0-3.526-4.564-6.443-10.5-6.929Zm-12.053.676a16.626,16.626,0,0,1,5.463-2.2,9.872,9.872,0,0,1-1.107-1.614,10.021,10.021,0,0,1-1.271-4.81c0-2.353,0-4.575.837-6.392a5.7,5.7,0,0,1,4.354-3.267c-.462-2.091-1.694-3.466-4.972-3.466-5.25,0-5.25,3.526-5.25,7.875a7.816,7.816,0,0,0,3.5,6.5v1.443c-5.936.485-10.5,3.4-10.5,6.929H10.2a11.209,11.209,0,0,1,1.318-1Z" transform="translate(-2.571 -5.143)"/></svg>