<svg xmlns="http://www.w3.org/2000/svg" xmlns:xlink="http://www.w3.org/1999/xlink" width="37.277" height="24.311" viewBox="0 0 37.277 24.311"><defs><style>.a{fill:url(#a);}</style><linearGradient id="a" x1="1.968" y1="0.748" x2="-1.023" y2="2.027" gradientUnits="objectBoundingBox"><stop offset="0" stop-color="#ff2424"/><stop offset="1" stop-color="#ffb300"/></linearGradient></defs><g transform="translate(-312.724 -166.69)"><g transform="translate(312.724 81.357)"><g transform="translate(12.966 85.333)"><g transform="translate(0 0)"><circle class="a" cx="5.673" cy="5.673" r="5.673"/></g></g><g transform="translate(25.932 91.816)"><circle class="a" cx="4.052" cy="4.052" r="4.052"/></g><g transform="translate(3.357 91.816)"><circle class="a" cx="4.052" cy="4.052" r="4.052"/></g><g transform="translate(8.104 98.299)"><g transform="translate(0 0)"><path class="a" d="M117.2,256a10.547,10.547,0,0,0-10.535,10.535.811.811,0,0,0,.81.81h19.449a.811.811,0,0,0,.81-.81A10.547,10.547,0,0,0,117.2,256Z" transform="translate(-106.666 -256)"/></g></g><g transform="translate(0 101.54)"><g transform="translate(0 0)"><path class="a" d="M8.805,298.842a7.272,7.272,0,0,0-1.512-.175A7.3,7.3,0,0,0,0,305.96a.811.811,0,0,0,.81.81H6.632a2.4,2.4,0,0,1-.149-.81A12.079,12.079,0,0,1,8.805,298.842Z" transform="translate(0 -298.667)"/></g></g><g transform="translate(28.471 101.54)"><g transform="translate(0 0)"><path class="a" d="M376.275,298.667a7.272,7.272,0,0,0-1.512.175,12.079,12.079,0,0,1,2.323,7.118,2.4,2.4,0,0,1-.149.81h5.822a.811.811,0,0,0,.81-.81A7.3,7.3,0,0,0,376.275,298.667Z" transform="translate(-374.763 -298.667)"/></g></g></g></g></svg>