<svg xmlns="http://www.w3.org/2000/svg" width="31.5" height="28" viewBox="0 0 31.5 28"><path class="a" d="M30.188,3.5H24.5V1.313A1.309,1.309,0,0,0,23.188,0H8.313A1.309,1.309,0,0,0,7,1.313V3.5H1.313A1.309,1.309,0,0,0,0,4.813V7.875c0,1.952,1.23,3.959,3.385,5.507A12.812,12.812,0,0,0,9.4,15.663a12.1,12.1,0,0,0,3.724,4.025v3.938H10.5c-1.93,0-3.5,1.132-3.5,3.063v.656A.658.658,0,0,0,7.656,28H23.844a.658.658,0,0,0,.656-.656v-.656c0-1.93-1.57-3.062-3.5-3.062H18.375V19.688A12.1,12.1,0,0,0,22.1,15.663a12.768,12.768,0,0,0,6.016-2.28C30.264,11.834,31.5,9.827,31.5,7.875V4.813A1.309,1.309,0,0,0,30.188,3.5ZM5.43,10.544A4.023,4.023,0,0,1,3.5,7.875V7H7.011a19.642,19.642,0,0,0,.7,4.714,8.813,8.813,0,0,1-2.28-1.17ZM28,7.875c0,.88-.968,1.974-1.93,2.669a8.848,8.848,0,0,1-2.286,1.17A19.642,19.642,0,0,0,24.484,7H28Z"/></svg>